<?xml version="1.0" standalone="no"?>
<!DOCTYPE svg PUBLIC "-//W3C//DTD SVG 20010904//EN"
 "http://www.w3.org/TR/2001/REC-SVG-20010904/DTD/svg10.dtd">
<svg version="1.0" xmlns="http://www.w3.org/2000/svg"
 width="1116.000000pt" height="801.000000pt" viewBox="0 0 1116.000000 801.000000"
 preserveAspectRatio="xMidYMid meet">

<g transform="translate(0.000000,801.000000) scale(0.100000,-0.100000)"
fill="#000000" stroke="none">
<path d="M5888 7929 c-333 -49 -610 -266 -728 -571 -48 -123 -63 -223 -57
-372 3 -77 11 -152 21 -181 14 -47 21 -54 93 -97 115 -70 292 -151 428 -198
415 -142 860 -181 1327 -114 137 20 167 13 193 -42 21 -45 6 -98 -37 -123 -67
-41 -469 -73 -757 -59 -273 12 -501 55 -769 143 -165 55 -372 148 -492 221
-123 76 -215 97 -325 74 -177 -36 -324 -169 -376 -342 -18 -58 -21 -87 -17
-168 4 -83 10 -107 37 -166 18 -38 43 -83 57 -101 57 -76 34 -148 -58 -178
-29 -10 -79 -31 -111 -47 l-58 -29 31 -37 c138 -164 199 -338 187 -532 -4 -52
-14 -122 -22 -155 -24 -92 -97 -231 -169 -322 l-65 -82 47 -30 c109 -69 221
-101 363 -101 146 0 288 43 387 117 46 35 83 46 115 34 15 -6 60 -41 100 -79
133 -123 290 -222 462 -293 l100 -40 14 23 c8 13 40 48 71 79 59 59 131 94
216 106 l43 6 -34 42 c-19 23 -41 58 -50 78 -35 85 -7 297 70 527 24 71 31
106 24 111 -6 3 -44 9 -85 13 -81 7 -316 47 -425 72 -85 19 -119 49 -119 106
0 30 7 46 29 69 36 36 52 36 206 4 161 -33 397 -66 492 -68 59 -1 91 4 133 21
76 30 217 30 321 1 84 -24 124 -24 264 -3 268 41 528 130 730 249 118 70 184
120 274 208 293 287 305 550 38 804 -153 146 -359 256 -564 302 -321 72 -680
228 -923 400 -101 71 -222 197 -256 266 -27 55 -29 69 -29 166 0 103 1 109 36
177 l36 70 -56 16 c-121 33 -250 42 -363 25z"/>
<path d="M3415 5784 c-166 -13 -414 -44 -910 -114 -832 -118 -1041 -142 -1368
-160 -202 -11 -410 -1 -504 24 -59 16 -73 23 -91 48 -41 57 -164 91 -246 68
-52 -14 -119 -68 -143 -113 -18 -36 -53 -327 -53 -447 0 -283 146 -466 420
-525 118 -26 449 -31 640 -11 139 15 538 78 582 92 14 4 9 -18 -28 -123 -26
-70 -104 -299 -174 -508 l-127 -380 -34 -7 c-19 -5 -131 -11 -249 -14 -250 -7
-312 0 -370 46 -101 80 -223 79 -315 -2 -64 -56 -88 -125 -88 -253 -1 -165 43
-269 167 -390 89 -88 161 -131 271 -164 73 -22 214 -41 303 -41 35 0 52 -4 52
-13 0 -6 -14 -59 -30 -117 -50 -170 -166 -635 -194 -770 -68 -337 -73 -502
-17 -615 75 -152 221 -221 488 -232 156 -6 203 3 263 53 56 47 71 87 87 217 7
67 30 192 49 277 89 393 349 1260 377 1260 32 0 301 34 447 56 203 31 273 48
318 79 45 30 89 96 98 143 14 75 -41 363 -86 452 -33 65 -114 145 -173 171
-46 21 -67 24 -178 24 l-127 0 63 180 c35 99 95 270 135 380 100 276 103 288
97 354 -3 31 -9 68 -12 82 -8 30 -36 24 280 64 374 48 672 53 758 14 33 -15
34 -32 7 -117 -11 -35 -20 -77 -20 -94 0 -170 195 -285 354 -209 52 26 126
108 185 205 133 220 147 477 39 696 -33 68 -58 102 -127 170 -129 127 -272
202 -456 239 -101 20 -269 32 -360 25z m335 -151 c274 -55 470 -215 536 -438
24 -80 24 -229 0 -310 -34 -114 -138 -283 -198 -319 -61 -37 -156 -7 -177 56
-9 27 -7 46 9 103 11 38 20 94 20 124 0 48 -3 57 -38 91 -20 21 -55 43 -77 49
-195 56 -518 37 -1322 -80 l-83 -12 60 -31 c76 -39 137 -98 151 -146 11 -37 3
-61 -181 -570 -106 -292 -191 -533 -189 -535 3 -2 85 8 184 22 172 25 183 25
235 10 102 -30 156 -109 185 -272 34 -188 34 -188 19 -217 -8 -15 -22 -32 -32
-37 -39 -21 -320 -66 -625 -100 -93 -11 -171 -22 -174 -25 -8 -8 -146 -454
-218 -708 -123 -427 -215 -838 -215 -954 0 -51 -19 -102 -45 -124 -38 -32
-269 -29 -380 4 -127 38 -192 120 -202 249 -12 170 76 602 252 1222 36 127 65
233 65 236 0 4 -89 9 -198 12 -214 5 -270 15 -370 66 -133 68 -216 160 -253
283 -38 124 -13 270 52 303 42 22 91 19 130 -10 87 -64 174 -84 356 -85 112 0
388 18 442 29 l33 6 148 435 c139 412 265 762 296 823 12 22 12 27 1 27 -7 0
-109 -18 -227 -40 -452 -84 -651 -105 -912 -97 -258 7 -384 41 -471 125 -98
94 -117 212 -83 523 15 143 24 171 63 188 47 21 81 13 128 -30 88 -81 221
-109 525 -109 366 0 668 32 1625 175 809 120 945 130 1155 88z"/>
<path d="M8170 5604 c-53 -54 -174 -150 -275 -217 -212 -140 -498 -255 -774
-312 -41 -9 -77 -17 -79 -19 -2 -2 8 -21 21 -43 14 -21 30 -55 37 -76 17 -53
9 -173 -14 -217 -10 -19 -58 -129 -107 -244 -49 -116 -101 -225 -115 -243 -37
-48 -97 -85 -170 -103 l-64 -16 40 -39 40 -39 72 23 c40 13 98 34 129 48 l57
25 20 88 c29 124 76 240 117 288 22 25 63 54 103 74 62 31 75 33 187 36 103 3
129 1 185 -18 121 -41 198 -122 215 -227 l7 -42 55 -7 c30 -3 99 -4 152 -1
171 9 311 74 438 204 178 182 240 454 156 694 -54 156 -170 297 -306 373 -91
51 -89 51 -127 10z"/>
<path d="M6449 5230 c-95 -17 -187 -79 -224 -150 -41 -80 -117 -332 -141 -470
-17 -103 -13 -163 16 -220 21 -41 90 -109 140 -139 l35 -21 -96 0 c-140 0
-241 -41 -304 -124 -46 -60 -219 -524 -330 -886 -47 -153 -76 -224 -165 -405
-157 -318 -391 -727 -407 -711 -13 13 73 350 168 661 81 263 177 542 287 830
41 110 77 221 80 246 7 79 -21 144 -97 220 -110 110 -267 169 -451 169 -112 0
-179 -17 -238 -60 l-41 -29 -57 25 c-97 43 -178 58 -319 58 -162 0 -267 -24
-410 -93 -120 -58 -221 -128 -322 -224 -492 -468 -769 -1376 -588 -1927 96
-290 330 -452 630 -437 158 8 283 60 424 178 53 44 62 48 67 32 40 -119 132
-227 238 -278 109 -52 204 -67 403 -63 l169 3 77 38 c85 42 196 140 292 257
l58 71 22 -54 c32 -79 58 -117 120 -176 114 -108 249 -145 517 -139 l173 3 69
35 c165 82 357 314 563 680 145 257 421 836 613 1285 l77 180 43 3 c38 3 42 1
36 -15 -90 -233 -239 -704 -296 -934 -69 -279 -84 -390 -85 -604 0 -172 2
-197 23 -265 33 -103 66 -162 127 -219 61 -57 125 -92 227 -122 62 -18 106
-22 288 -26 245 -5 290 3 392 70 53 36 148 128 200 197 15 19 28 32 30 30 2
-3 14 -27 28 -55 34 -70 126 -157 202 -193 113 -53 184 -66 378 -66 159 -1
180 1 229 21 30 13 56 21 59 19 5 -6 -82 -214 -134 -317 -120 -240 -242 -371
-366 -394 -55 -10 -78 0 -78 38 -1 83 -82 176 -172 197 -109 27 -206 -6 -267
-91 -41 -55 -52 -117 -41 -221 18 -175 60 -268 175 -383 90 -91 159 -132 280
-167 111 -31 319 -31 448 0 442 109 763 495 1058 1276 108 285 276 797 429
1306 93 311 253 817 311 985 44 130 50 158 47 210 -5 75 -26 120 -85 178 -90
90 -252 153 -420 164 -161 10 -275 -26 -350 -111 -46 -52 -85 -155 -223 -591
-132 -418 -250 -722 -405 -1039 -110 -226 -243 -447 -253 -418 -5 15 50 232
114 455 68 235 208 662 326 997 109 306 118 364 74 455 -34 68 -107 133 -201
179 -110 54 -183 70 -320 71 -112 0 -124 -2 -183 -29 -92 -43 -129 -91 -201
-259 -77 -183 -173 -443 -249 -679 -66 -204 -129 -348 -323 -738 -130 -261
-197 -385 -263 -481 l-38 -54 6 70 c18 195 110 513 331 1150 103 298 125 383
125 490 0 188 -85 347 -243 452 -107 72 -165 88 -322 88 -71 0 -154 -4 -184
-9 -50 -8 -54 -7 -47 10 21 54 28 104 22 147 -21 142 -208 238 -407 209 -162
-23 -236 -89 -292 -260 -65 -195 -69 -354 -13 -466 l22 -44 -81 -188 c-226
-525 -470 -1038 -610 -1279 -88 -151 -159 -259 -163 -247 -5 15 67 304 133
532 81 282 195 639 294 920 74 213 86 254 86 310 -1 103 -52 183 -166 259
l-61 41 88 0 c94 1 144 13 198 51 48 33 70 70 142 241 36 84 84 193 106 242
49 108 54 179 18 264 -73 170 -385 311 -601 272z m218 -155 c78 -24 177 -77
222 -118 26 -24 60 -92 61 -120 0 -25 -90 -231 -163 -371 -79 -154 -89 -161
-210 -160 -150 1 -310 58 -359 126 -19 28 -23 44 -22 103 2 111 92 414 149
501 44 68 180 84 322 39z m900 -644 c25 -15 49 -38 58 -58 16 -33 15 -37 -26
-161 -23 -70 -44 -133 -47 -139 -6 -19 26 -17 200 12 84 14 182 25 219 25 173
0 327 -98 402 -258 29 -61 32 -75 32 -167 0 -116 -1 -120 -161 -580 -179 -518
-255 -786 -290 -1025 -17 -118 -14 -264 7 -302 32 -60 159 41 273 219 76 118
196 344 319 598 181 377 191 402 281 668 136 405 263 717 314 770 38 40 119
61 207 54 137 -12 291 -78 349 -151 49 -60 44 -93 -58 -376 -230 -638 -403
-1209 -465 -1533 -22 -114 -28 -281 -11 -292 27 -16 88 22 175 109 134 134
250 316 392 614 154 325 262 608 432 1127 66 204 131 386 143 405 38 57 96 80
203 80 195 0 384 -88 410 -191 4 -18 -9 -71 -45 -175 -64 -187 -210 -652 -334
-1064 -374 -1246 -589 -1765 -865 -2094 -121 -144 -306 -268 -466 -311 -82
-22 -301 -31 -374 -15 -188 41 -340 184 -380 360 -14 61 -14 173 1 205 23 51
100 70 158 40 36 -18 45 -36 54 -97 13 -89 70 -131 176 -130 207 1 392 192
566 587 34 77 83 201 109 275 49 143 127 401 122 406 -2 2 -27 -28 -56 -66
-77 -101 -197 -210 -275 -249 -60 -31 -77 -35 -169 -39 -186 -8 -348 26 -439
93 -89 65 -132 162 -151 335 l-11 106 -61 -101 c-85 -142 -144 -223 -214 -292
-116 -115 -196 -139 -421 -129 -80 3 -175 13 -212 20 -239 51 -332 193 -330
501 2 326 109 744 400 1561 l50 141 -47 -9 c-25 -5 -102 -13 -171 -16 l-125
-7 -62 -152 c-89 -221 -316 -718 -459 -1008 -295 -598 -512 -903 -714 -1003
-52 -26 -62 -27 -195 -26 -165 1 -248 15 -331 55 -147 70 -223 227 -224 468
l0 85 -81 -125 c-159 -242 -289 -385 -405 -444 -56 -28 -67 -30 -197 -33 -162
-4 -252 9 -334 47 -81 39 -127 81 -162 152 -34 69 -48 129 -59 253 l-7 90 -29
-44 c-46 -70 -195 -218 -269 -267 -102 -68 -191 -96 -302 -95 -306 2 -494 213
-524 586 -47 604 302 1376 760 1682 166 111 309 156 489 156 156 -1 259 -33
360 -113 l48 -38 13 32 c29 74 98 117 200 125 165 12 387 -86 429 -188 19 -46
8 -91 -74 -305 -225 -582 -423 -1248 -471 -1584 -16 -109 -17 -252 -3 -267 16
-16 73 24 149 103 139 148 316 436 537 878 100 201 128 268 172 409 116 378
287 845 323 885 62 67 204 84 342 41 144 -45 255 -135 255 -208 0 -11 -60
-201 -134 -423 -195 -586 -328 -1052 -386 -1354 -24 -127 -36 -293 -22 -314
38 -54 195 105 348 352 177 285 352 640 633 1291 161 370 180 420 168 435 -87
99 -86 301 4 499 25 56 33 65 81 88 47 22 63 25 148 22 78 -3 103 -8 137 -27z"/>
<path d="M4293 3609 c-60 -30 -180 -160 -243 -264 -90 -149 -190 -395 -284
-699 -81 -259 -97 -437 -46 -491 44 -47 105 -23 198 78 118 129 423 689 497
911 59 177 82 350 56 419 -26 67 -98 86 -178 46z m67 -158 c0 -52 -28 -178
-64 -284 -59 -176 -239 -513 -381 -712 -78 -110 -79 -110 -71 -40 21 189 146
541 272 767 86 153 200 298 235 298 5 0 9 -13 9 -29z"/>
</g>
</svg>
