<?xml version="1.0"?>
<svg xmlns="http://www.w3.org/2000/svg" id="Capa_1" enable-background="new 0 0 512 512" height="512px" viewBox="0 0 512 512" width="512px"><g><g><path d="m169.791 407.054h71.209v71.21h-71.209z" data-original="#000000" class="active-path" data-old_color="#000000" fill="#B76781"/><path d="m96.696 261.648h123.091l-49.934-49.934c-19.437-19.437-31.497-44.285-34.774-71.147h-38.383z" data-original="#000000" class="active-path" data-old_color="#000000" fill="#B76781"/><path d="m0 407.054h139.791v71.21h-139.791z" data-original="#000000" class="active-path" data-old_color="#000000" fill="#B76781"/><path d="m271 291.648h57.151v186.616h-57.151z" data-original="#000000" class="active-path" data-old_color="#000000" fill="#B76781"/><path d="m445.303 268.824 66.697 46.54v-174.797h-66.697z" data-original="#000000" class="active-path" data-old_color="#000000" fill="#B76781"/><path d="m0 291.648h241v85.406h-241z" data-original="#000000" class="active-path" data-old_color="#000000" fill="#B76781"/><path d="m0 140.567h66.696v121.081h-66.696z" data-original="#000000" class="active-path" data-old_color="#000000" fill="#B76781"/><path d="m342.147 211.714-49.934 49.934h123.09v-121.081h-38.381c-3.278 26.862-15.338 51.71-34.775 71.147z" data-original="#000000" class="active-path" data-old_color="#000000" fill="#B76781"/><path d="m512 351.945-86.413-60.297h-67.436v186.616h153.849z" data-original="#000000" class="active-path" data-old_color="#000000" fill="#B76781"/><path d="m191.066 190.501 64.934 64.934 64.934-64.934c17.344-17.345 26.896-40.405 26.896-64.934 0-50.636-41.195-91.831-91.831-91.831s-91.831 41.195-91.831 91.831c.001 24.529 9.554 47.589 26.898 64.934zm64.934-119.292c29.974 0 54.359 24.386 54.359 54.359s-24.385 54.36-54.359 54.36-54.359-24.386-54.359-54.359 24.385-54.36 54.359-54.36z" data-original="#000000" class="active-path" data-old_color="#000000" fill="#B76781"/><circle cx="256" cy="125.569" r="24.359" data-original="#000000" class="active-path" data-old_color="#000000" fill="#B76781"/></g></g> </svg>
