<?xml version="1.0"?>
<svg xmlns="http://www.w3.org/2000/svg" height="512px" viewBox="0 0 64 64" width="512px"><g><g id="Send_package" data-name="Send package"><path d="m54 46h6v12h-6z" data-original="#000000" class="active-path" data-old_color="#000000" fill="#B76781"/><path d="m46 44h6v16h-6z" data-original="#000000" class="active-path" data-old_color="#000000" fill="#B76781"/><path d="m5.312 48.635 17.724 10.231a1 1 0 0 0 .5.134h16.992a1.016 1.016 0 0 0 .447-.1l3.025-1.518v-10.6l-6.739-1.682a1 1 0 0 0 -.5 0l-15.923 4.266a2 2 0 1 0 1.035 3.863l11.927-3.195a1 1 0 0 1 .517 1.932l-11.925 3.2a3.96 3.96 0 0 1 -5.007-4.179l-10.075-5.821a2.034 2.034 0 0 0 -2.722.731 2.007 2.007 0 0 0 .724 2.738z" data-original="#000000" class="active-path" data-old_color="#000000" fill="#B76781"/><path d="m19.72 4h-10.102l-3 6h11.602z" data-original="#000000" class="active-path" data-old_color="#000000" fill="#B76781"/><path d="m6 38h34v-26h-12v11a1 1 0 0 1 -1.447.895l-3.553-1.777-3.553 1.782a1 1 0 0 1 -1.447-.9v-11h-12z" data-original="#000000" class="active-path" data-old_color="#000000" fill="#B76781"/><path d="m20 21.382 2.553-1.277a1 1 0 0 1 .894 0l2.553 1.277v-9.382h-6z" data-original="#000000" class="active-path" data-old_color="#000000" fill="#B76781"/><path d="m25.719 10-1.5-6h-2.438l-1.5 6z" data-original="#000000" class="active-path" data-old_color="#000000" fill="#B76781"/><path d="m39.382 10-3-6h-10.102l1.5 6z" data-original="#000000" class="active-path" data-old_color="#000000" fill="#B76781"/></g></g> </svg>
